<?xml version="1.0" encoding="UTF-8" standalone="no"?>
<!DOCTYPE svg PUBLIC "-//W3C//DTD SVG 1.1//EN"
 "http://www.w3.org/Graphics/SVG/1.1/DTD/svg11.dtd">
<!-- Generated by graphviz version 2.40.1 (20161225.0304)
 -->
<!-- Title: controllers_diagram Pages: 1 -->
<svg width="947pt" height="901pt"
 viewBox="0.00 0.00 947.09 901.00" xmlns="http://www.w3.org/2000/svg" xmlns:xlink="http://www.w3.org/1999/xlink">
<g id="graph0" class="graph" transform="scale(1 1) rotate(0) translate(4 897)">
<title>controllers_diagram</title>
<polygon fill="transparent" stroke="transparent" points="-4,4 -4,-897 943.0898,-897 943.0898,4 -4,4"/>
<!-- _diagram_info -->
<g id="node1" class="node">
<title>_diagram_info</title>
<text text-anchor="start" x="680" y="-186.6" font-family="Times,serif" font-size="13.00" fill="#000000">Controllers diagram</text>
<text text-anchor="start" x="680" y="-173.6" font-family="Times,serif" font-size="13.00" fill="#000000">Date: Jul 30 2017 &#45; 08:20</text>
<text text-anchor="start" x="680" y="-160.6" font-family="Times,serif" font-size="13.00" fill="#000000">Migration version: 20170730091328</text>
<text text-anchor="start" x="680" y="-147.6" font-family="Times,serif" font-size="13.00" fill="#000000">Generated by RailRoady 1.5.3</text>
<text text-anchor="start" x="680" y="-134.6" font-family="Times,serif" font-size="13.00" fill="#000000">http://railroady.prestonlee.com</text>
</g>
<!-- AdminController -->
<g id="node2" class="node">
<title>AdminController</title>
<path fill="none" stroke="#000000" d="M124,-384.5C124,-384.5 212.4346,-384.5 212.4346,-384.5 218.4346,-384.5 224.4346,-390.5 224.4346,-396.5 224.4346,-396.5 224.4346,-532.5 224.4346,-532.5 224.4346,-538.5 218.4346,-544.5 212.4346,-544.5 212.4346,-544.5 124,-544.5 124,-544.5 118,-544.5 112,-538.5 112,-532.5 112,-532.5 112,-396.5 112,-396.5 112,-390.5 118,-384.5 124,-384.5"/>
<text text-anchor="middle" x="168.2173" y="-529.3" font-family="Times,serif" font-size="14.00" fill="#000000">AdminController</text>
<polyline fill="none" stroke="#000000" points="112,-522.5 224.4346,-522.5 "/>
<text text-anchor="start" x="120" y="-507.3" font-family="Times,serif" font-size="14.00" fill="#000000">destroy</text>
<text text-anchor="start" x="120" y="-493.3" font-family="Times,serif" font-size="14.00" fill="#000000">edit</text>
<text text-anchor="start" x="120" y="-479.3" font-family="Times,serif" font-size="14.00" fill="#000000">home</text>
<text text-anchor="start" x="120" y="-465.3" font-family="Times,serif" font-size="14.00" fill="#000000">index</text>
<text text-anchor="start" x="120" y="-451.3" font-family="Times,serif" font-size="14.00" fill="#000000">update</text>
<text text-anchor="start" x="120" y="-437.3" font-family="Times,serif" font-size="14.00" fill="#000000">user_params</text>
<polyline fill="none" stroke="#000000" points="112,-430.5 224.4346,-430.5 "/>
<polyline fill="none" stroke="#000000" points="112,-406.5 224.4346,-406.5 "/>
<text text-anchor="start" x="120" y="-391.3" font-family="Times,serif" font-size="14.00" fill="#000000">_layout</text>
</g>
<!-- ApplicationController -->
<g id="node3" class="node">
<title>ApplicationController</title>
<path fill="none" stroke="#000000" d="M476,-496.5C476,-496.5 649.9316,-496.5 649.9316,-496.5 655.9316,-496.5 661.9316,-502.5 661.9316,-508.5 661.9316,-508.5 661.9316,-616.5 661.9316,-616.5 661.9316,-622.5 655.9316,-628.5 649.9316,-628.5 649.9316,-628.5 476,-628.5 476,-628.5 470,-628.5 464,-622.5 464,-616.5 464,-616.5 464,-508.5 464,-508.5 464,-502.5 470,-496.5 476,-496.5"/>
<text text-anchor="middle" x="562.9658" y="-613.3" font-family="Times,serif" font-size="14.00" fill="#000000">ApplicationController</text>
<polyline fill="none" stroke="#000000" points="464,-606.5 661.9316,-606.5 "/>
<text text-anchor="start" x="472" y="-591.3" font-family="Times,serif" font-size="14.00" fill="#000000">after_sign_in_path_for</text>
<text text-anchor="start" x="472" y="-577.3" font-family="Times,serif" font-size="14.00" fill="#000000">authenticate_admin!</text>
<text text-anchor="start" x="472" y="-563.3" font-family="Times,serif" font-size="14.00" fill="#000000">authenticate_user!</text>
<text text-anchor="start" x="472" y="-549.3" font-family="Times,serif" font-size="14.00" fill="#000000">configure_permitted_parameters</text>
<polyline fill="none" stroke="#000000" points="464,-542.5 661.9316,-542.5 "/>
<polyline fill="none" stroke="#000000" points="464,-518.5 661.9316,-518.5 "/>
<text text-anchor="start" x="472" y="-503.3" font-family="Times,serif" font-size="14.00" fill="#000000">_layout</text>
</g>
<!-- CommentsController -->
<g id="node4" class="node">
<title>CommentsController</title>
<path fill="none" stroke="#000000" d="M204,-704.5C204,-704.5 314.2139,-704.5 314.2139,-704.5 320.2139,-704.5 326.2139,-710.5 326.2139,-716.5 326.2139,-716.5 326.2139,-824.5 326.2139,-824.5 326.2139,-830.5 320.2139,-836.5 314.2139,-836.5 314.2139,-836.5 204,-836.5 204,-836.5 198,-836.5 192,-830.5 192,-824.5 192,-824.5 192,-716.5 192,-716.5 192,-710.5 198,-704.5 204,-704.5"/>
<text text-anchor="middle" x="259.1069" y="-821.3" font-family="Times,serif" font-size="14.00" fill="#000000">CommentsController</text>
<polyline fill="none" stroke="#000000" points="192,-814.5 326.2139,-814.5 "/>
<text text-anchor="start" x="200" y="-799.3" font-family="Times,serif" font-size="14.00" fill="#000000">create</text>
<text text-anchor="start" x="200" y="-785.3" font-family="Times,serif" font-size="14.00" fill="#000000">destroy</text>
<text text-anchor="start" x="200" y="-771.3" font-family="Times,serif" font-size="14.00" fill="#000000">edit</text>
<text text-anchor="start" x="200" y="-757.3" font-family="Times,serif" font-size="14.00" fill="#000000">update</text>
<polyline fill="none" stroke="#000000" points="192,-750.5 326.2139,-750.5 "/>
<polyline fill="none" stroke="#000000" points="192,-726.5 326.2139,-726.5 "/>
<text text-anchor="start" x="200" y="-711.3" font-family="Times,serif" font-size="14.00" fill="#000000">_layout</text>
</g>
<!-- CommunityController -->
<g id="node5" class="node">
<title>CommunityController</title>
<path fill="none" stroke="#000000" d="M396,-16.5C396,-16.5 512.4414,-16.5 512.4414,-16.5 518.4414,-16.5 524.4414,-22.5 524.4414,-28.5 524.4414,-28.5 524.4414,-94.5 524.4414,-94.5 524.4414,-100.5 518.4414,-106.5 512.4414,-106.5 512.4414,-106.5 396,-106.5 396,-106.5 390,-106.5 384,-100.5 384,-94.5 384,-94.5 384,-28.5 384,-28.5 384,-22.5 390,-16.5 396,-16.5"/>
<text text-anchor="middle" x="454.2207" y="-91.3" font-family="Times,serif" font-size="14.00" fill="#000000">CommunityController</text>
<polyline fill="none" stroke="#000000" points="384,-84.5 524.4414,-84.5 "/>
<text text-anchor="start" x="392" y="-69.3" font-family="Times,serif" font-size="14.00" fill="#000000">index</text>
<polyline fill="none" stroke="#000000" points="384,-62.5 524.4414,-62.5 "/>
<polyline fill="none" stroke="#000000" points="384,-38.5 524.4414,-38.5 "/>
<text text-anchor="start" x="392" y="-23.3" font-family="Times,serif" font-size="14.00" fill="#000000">_layout</text>
</g>
<!-- MyRegistrationsController -->
<g id="node6" class="node">
<title>MyRegistrationsController</title>
<path fill="none" stroke="#000000" d="M44,-576.5C44,-576.5 186.876,-576.5 186.876,-576.5 192.876,-576.5 198.876,-582.5 198.876,-588.5 198.876,-588.5 198.876,-654.5 198.876,-654.5 198.876,-660.5 192.876,-666.5 186.876,-666.5 186.876,-666.5 44,-666.5 44,-666.5 38,-666.5 32,-660.5 32,-654.5 32,-654.5 32,-588.5 32,-588.5 32,-582.5 38,-576.5 44,-576.5"/>
<text text-anchor="middle" x="115.438" y="-651.3" font-family="Times,serif" font-size="14.00" fill="#000000">MyRegistrationsController</text>
<polyline fill="none" stroke="#000000" points="32,-644.5 198.876,-644.5 "/>
<text text-anchor="start" x="40" y="-629.3" font-family="Times,serif" font-size="14.00" fill="#000000">create</text>
<polyline fill="none" stroke="#000000" points="32,-622.5 198.876,-622.5 "/>
<polyline fill="none" stroke="#000000" points="32,-598.5 198.876,-598.5 "/>
<text text-anchor="start" x="40" y="-583.3" font-family="Times,serif" font-size="14.00" fill="#000000">_layout</text>
</g>
<!-- NavbarController -->
<g id="node7" class="node">
<title>NavbarController</title>
<path fill="none" stroke="#000000" d="M364,-704.5C364,-704.5 454.7451,-704.5 454.7451,-704.5 460.7451,-704.5 466.7451,-710.5 466.7451,-716.5 466.7451,-716.5 466.7451,-852.5 466.7451,-852.5 466.7451,-858.5 460.7451,-864.5 454.7451,-864.5 454.7451,-864.5 364,-864.5 364,-864.5 358,-864.5 352,-858.5 352,-852.5 352,-852.5 352,-716.5 352,-716.5 352,-710.5 358,-704.5 364,-704.5"/>
<text text-anchor="middle" x="409.3726" y="-849.3" font-family="Times,serif" font-size="14.00" fill="#000000">NavbarController</text>
<polyline fill="none" stroke="#000000" points="352,-842.5 466.7451,-842.5 "/>
<text text-anchor="start" x="360" y="-827.3" font-family="Times,serif" font-size="14.00" fill="#000000">forum</text>
<text text-anchor="start" x="360" y="-813.3" font-family="Times,serif" font-size="14.00" fill="#000000">home</text>
<text text-anchor="start" x="360" y="-799.3" font-family="Times,serif" font-size="14.00" fill="#000000">inbox</text>
<text text-anchor="start" x="360" y="-785.3" font-family="Times,serif" font-size="14.00" fill="#000000">profile</text>
<text text-anchor="start" x="360" y="-771.3" font-family="Times,serif" font-size="14.00" fill="#000000">resources</text>
<text text-anchor="start" x="360" y="-757.3" font-family="Times,serif" font-size="14.00" fill="#000000">settings</text>
<polyline fill="none" stroke="#000000" points="352,-750.5 466.7451,-750.5 "/>
<polyline fill="none" stroke="#000000" points="352,-726.5 466.7451,-726.5 "/>
<text text-anchor="start" x="360" y="-711.3" font-family="Times,serif" font-size="14.00" fill="#000000">_layout</text>
</g>
<!-- PetsController -->
<g id="node8" class="node">
<title>PetsController</title>
<path fill="none" stroke="#000000" d="M636,-656.5C636,-656.5 708.8828,-656.5 708.8828,-656.5 714.8828,-656.5 720.8828,-662.5 720.8828,-668.5 720.8828,-668.5 720.8828,-846.5 720.8828,-846.5 720.8828,-852.5 714.8828,-858.5 708.8828,-858.5 708.8828,-858.5 636,-858.5 636,-858.5 630,-858.5 624,-852.5 624,-846.5 624,-846.5 624,-668.5 624,-668.5 624,-662.5 630,-656.5 636,-656.5"/>
<text text-anchor="middle" x="672.4414" y="-843.3" font-family="Times,serif" font-size="14.00" fill="#000000">PetsController</text>
<polyline fill="none" stroke="#000000" points="624,-836.5 720.8828,-836.5 "/>
<text text-anchor="start" x="632" y="-821.3" font-family="Times,serif" font-size="14.00" fill="#000000">index</text>
<text text-anchor="start" x="632" y="-807.3" font-family="Times,serif" font-size="14.00" fill="#000000">destroy</text>
<text text-anchor="start" x="632" y="-793.3" font-family="Times,serif" font-size="14.00" fill="#000000">edit</text>
<text text-anchor="start" x="632" y="-779.3" font-family="Times,serif" font-size="14.00" fill="#000000">create</text>
<text text-anchor="start" x="632" y="-765.3" font-family="Times,serif" font-size="14.00" fill="#000000">new</text>
<text text-anchor="start" x="632" y="-751.3" font-family="Times,serif" font-size="14.00" fill="#000000">show</text>
<text text-anchor="start" x="632" y="-737.3" font-family="Times,serif" font-size="14.00" fill="#000000">update</text>
<polyline fill="none" stroke="#000000" points="624,-730.5 720.8828,-730.5 "/>
<polyline fill="none" stroke="#000000" points="624,-706.5 720.8828,-706.5 "/>
<text text-anchor="start" x="632" y="-691.3" font-family="Times,serif" font-size="14.00" fill="#000000">_layout</text>
<text text-anchor="start" x="632" y="-677.3" font-family="Times,serif" font-size="14.00" fill="#000000">pet_params</text>
<text text-anchor="start" x="632" y="-663.3" font-family="Times,serif" font-size="14.00" fill="#000000">set_pet</text>
</g>
<!-- PostsController -->
<g id="node9" class="node">
<title>PostsController</title>
<path fill="none" stroke="#000000" d="M508,-656.5C508,-656.5 587.1172,-656.5 587.1172,-656.5 593.1172,-656.5 599.1172,-662.5 599.1172,-668.5 599.1172,-668.5 599.1172,-846.5 599.1172,-846.5 599.1172,-852.5 593.1172,-858.5 587.1172,-858.5 587.1172,-858.5 508,-858.5 508,-858.5 502,-858.5 496,-852.5 496,-846.5 496,-846.5 496,-668.5 496,-668.5 496,-662.5 502,-656.5 508,-656.5"/>
<text text-anchor="middle" x="547.5586" y="-843.3" font-family="Times,serif" font-size="14.00" fill="#000000">PostsController</text>
<polyline fill="none" stroke="#000000" points="496,-836.5 599.1172,-836.5 "/>
<text text-anchor="start" x="504" y="-821.3" font-family="Times,serif" font-size="14.00" fill="#000000">index</text>
<text text-anchor="start" x="504" y="-807.3" font-family="Times,serif" font-size="14.00" fill="#000000">destroy</text>
<text text-anchor="start" x="504" y="-793.3" font-family="Times,serif" font-size="14.00" fill="#000000">edit</text>
<text text-anchor="start" x="504" y="-779.3" font-family="Times,serif" font-size="14.00" fill="#000000">create</text>
<text text-anchor="start" x="504" y="-765.3" font-family="Times,serif" font-size="14.00" fill="#000000">new</text>
<text text-anchor="start" x="504" y="-751.3" font-family="Times,serif" font-size="14.00" fill="#000000">show</text>
<text text-anchor="start" x="504" y="-737.3" font-family="Times,serif" font-size="14.00" fill="#000000">update</text>
<polyline fill="none" stroke="#000000" points="496,-730.5 599.1172,-730.5 "/>
<polyline fill="none" stroke="#000000" points="496,-706.5 599.1172,-706.5 "/>
<text text-anchor="start" x="504" y="-691.3" font-family="Times,serif" font-size="14.00" fill="#000000">_layout</text>
<text text-anchor="start" x="504" y="-677.3" font-family="Times,serif" font-size="14.00" fill="#000000">find_post</text>
<text text-anchor="start" x="504" y="-663.3" font-family="Times,serif" font-size="14.00" fill="#000000">post_params</text>
</g>
<!-- ProfileController -->
<g id="node10" class="node">
<title>ProfileController</title>
<path fill="none" stroke="#000000" d="M732,-.5C732,-.5 818.8828,-.5 818.8828,-.5 824.8828,-.5 830.8828,-6.5 830.8828,-12.5 830.8828,-12.5 830.8828,-78.5 830.8828,-78.5 830.8828,-84.5 824.8828,-90.5 818.8828,-90.5 818.8828,-90.5 732,-90.5 732,-90.5 726,-90.5 720,-84.5 720,-78.5 720,-78.5 720,-12.5 720,-12.5 720,-6.5 726,-.5 732,-.5"/>
<text text-anchor="middle" x="775.4414" y="-75.3" font-family="Times,serif" font-size="14.00" fill="#000000">ProfileController</text>
<polyline fill="none" stroke="#000000" points="720,-68.5 830.8828,-68.5 "/>
<text text-anchor="start" x="728" y="-53.3" font-family="Times,serif" font-size="14.00" fill="#000000">show</text>
<polyline fill="none" stroke="#000000" points="720,-46.5 830.8828,-46.5 "/>
<polyline fill="none" stroke="#000000" points="720,-22.5 830.8828,-22.5 "/>
<text text-anchor="start" x="728" y="-7.3" font-family="Times,serif" font-size="14.00" fill="#000000">_layout</text>
</g>
<!-- ResourceController -->
<g id="node11" class="node">
<title>ResourceController</title>
<path fill="none" stroke="#000000" d="M796,-240.5C796,-240.5 897.6348,-240.5 897.6348,-240.5 903.6348,-240.5 909.6348,-246.5 909.6348,-252.5 909.6348,-252.5 909.6348,-318.5 909.6348,-318.5 909.6348,-324.5 903.6348,-330.5 897.6348,-330.5 897.6348,-330.5 796,-330.5 796,-330.5 790,-330.5 784,-324.5 784,-318.5 784,-318.5 784,-252.5 784,-252.5 784,-246.5 790,-240.5 796,-240.5"/>
<text text-anchor="middle" x="846.8174" y="-315.3" font-family="Times,serif" font-size="14.00" fill="#000000">ResourceController</text>
<polyline fill="none" stroke="#000000" points="784,-308.5 909.6348,-308.5 "/>
<text text-anchor="start" x="792" y="-293.3" font-family="Times,serif" font-size="14.00" fill="#000000">index</text>
<polyline fill="none" stroke="#000000" points="784,-286.5 909.6348,-286.5 "/>
<polyline fill="none" stroke="#000000" points="784,-262.5 909.6348,-262.5 "/>
<text text-anchor="start" x="792" y="-247.3" font-family="Times,serif" font-size="14.00" fill="#000000">_layout</text>
</g>
<!-- Sessions::ConfirmationsController -->
<g id="node12" class="node">
<title>Sessions::ConfirmationsController</title>
<path fill="none" stroke="#000000" d="M236,-576.5C236,-576.5 421.6758,-576.5 421.6758,-576.5 427.6758,-576.5 433.6758,-582.5 433.6758,-588.5 433.6758,-588.5 433.6758,-656.5 433.6758,-656.5 433.6758,-662.5 427.6758,-668.5 421.6758,-668.5 421.6758,-668.5 236,-668.5 236,-668.5 230,-668.5 224,-662.5 224,-656.5 224,-656.5 224,-588.5 224,-588.5 224,-582.5 230,-576.5 236,-576.5"/>
<text text-anchor="middle" x="328.8379" y="-653.3" font-family="Times,serif" font-size="14.00" fill="#000000">Sessions::ConfirmationsController</text>
<polyline fill="none" stroke="#000000" points="224,-646.5 433.6758,-646.5 "/>
<polyline fill="none" stroke="#000000" points="224,-622.5 433.6758,-622.5 "/>
<polyline fill="none" stroke="#000000" points="224,-598.5 433.6758,-598.5 "/>
<text text-anchor="start" x="232" y="-583.3" font-family="Times,serif" font-size="14.00" fill="#000000">_layout</text>
</g>
<!-- Sessions::OmniauthCallbacksController -->
<g id="node13" class="node">
<title>Sessions::OmniauthCallbacksController</title>
<path fill="none" stroke="#000000" d="M268,-368.5C268,-368.5 484.7588,-368.5 484.7588,-368.5 490.7588,-368.5 496.7588,-374.5 496.7588,-380.5 496.7588,-380.5 496.7588,-448.5 496.7588,-448.5 496.7588,-454.5 490.7588,-460.5 484.7588,-460.5 484.7588,-460.5 268,-460.5 268,-460.5 262,-460.5 256,-454.5 256,-448.5 256,-448.5 256,-380.5 256,-380.5 256,-374.5 262,-368.5 268,-368.5"/>
<text text-anchor="middle" x="376.3794" y="-445.3" font-family="Times,serif" font-size="14.00" fill="#000000">Sessions::OmniauthCallbacksController</text>
<polyline fill="none" stroke="#000000" points="256,-438.5 496.7588,-438.5 "/>
<polyline fill="none" stroke="#000000" points="256,-414.5 496.7588,-414.5 "/>
<polyline fill="none" stroke="#000000" points="256,-390.5 496.7588,-390.5 "/>
<text text-anchor="start" x="264" y="-375.3" font-family="Times,serif" font-size="14.00" fill="#000000">_layout</text>
</g>
<!-- Sessions::PasswordsController -->
<g id="node14" class="node">
<title>Sessions::PasswordsController</title>
<path fill="none" stroke="#000000" d="M700,-400.5C700,-400.5 864.6758,-400.5 864.6758,-400.5 870.6758,-400.5 876.6758,-406.5 876.6758,-412.5 876.6758,-412.5 876.6758,-480.5 876.6758,-480.5 876.6758,-486.5 870.6758,-492.5 864.6758,-492.5 864.6758,-492.5 700,-492.5 700,-492.5 694,-492.5 688,-486.5 688,-480.5 688,-480.5 688,-412.5 688,-412.5 688,-406.5 694,-400.5 700,-400.5"/>
<text text-anchor="middle" x="782.3379" y="-477.3" font-family="Times,serif" font-size="14.00" fill="#000000">Sessions::PasswordsController</text>
<polyline fill="none" stroke="#000000" points="688,-470.5 876.6758,-470.5 "/>
<polyline fill="none" stroke="#000000" points="688,-446.5 876.6758,-446.5 "/>
<polyline fill="none" stroke="#000000" points="688,-422.5 876.6758,-422.5 "/>
<text text-anchor="start" x="696" y="-407.3" font-family="Times,serif" font-size="14.00" fill="#000000">_layout</text>
</g>
<!-- Sessions::RegistrationsController -->
<g id="node15" class="node">
<title>Sessions::RegistrationsController</title>
<path fill="none" stroke="#000000" d="M220,-240.5C220,-240.5 399.4414,-240.5 399.4414,-240.5 405.4414,-240.5 411.4414,-246.5 411.4414,-252.5 411.4414,-252.5 411.4414,-320.5 411.4414,-320.5 411.4414,-326.5 405.4414,-332.5 399.4414,-332.5 399.4414,-332.5 220,-332.5 220,-332.5 214,-332.5 208,-326.5 208,-320.5 208,-320.5 208,-252.5 208,-252.5 208,-246.5 214,-240.5 220,-240.5"/>
<text text-anchor="middle" x="309.7207" y="-317.3" font-family="Times,serif" font-size="14.00" fill="#000000">Sessions::RegistrationsController</text>
<polyline fill="none" stroke="#000000" points="208,-310.5 411.4414,-310.5 "/>
<polyline fill="none" stroke="#000000" points="208,-286.5 411.4414,-286.5 "/>
<polyline fill="none" stroke="#000000" points="208,-262.5 411.4414,-262.5 "/>
<text text-anchor="start" x="216" y="-247.3" font-family="Times,serif" font-size="14.00" fill="#000000">_layout</text>
</g>
<!-- Sessions::SessionsController -->
<g id="node16" class="node">
<title>Sessions::SessionsController</title>
<path fill="none" stroke="#000000" d="M700,-528.5C700,-528.5 853.793,-528.5 853.793,-528.5 859.793,-528.5 865.793,-534.5 865.793,-540.5 865.793,-540.5 865.793,-608.5 865.793,-608.5 865.793,-614.5 859.793,-620.5 853.793,-620.5 853.793,-620.5 700,-620.5 700,-620.5 694,-620.5 688,-614.5 688,-608.5 688,-608.5 688,-540.5 688,-540.5 688,-534.5 694,-528.5 700,-528.5"/>
<text text-anchor="middle" x="776.8965" y="-605.3" font-family="Times,serif" font-size="14.00" fill="#000000">Sessions::SessionsController</text>
<polyline fill="none" stroke="#000000" points="688,-598.5 865.793,-598.5 "/>
<polyline fill="none" stroke="#000000" points="688,-574.5 865.793,-574.5 "/>
<polyline fill="none" stroke="#000000" points="688,-550.5 865.793,-550.5 "/>
<text text-anchor="start" x="696" y="-535.3" font-family="Times,serif" font-size="14.00" fill="#000000">_layout</text>
</g>
<!-- Sessions::UnlocksController -->
<g id="node17" class="node">
<title>Sessions::UnlocksController</title>
<path fill="none" stroke="#000000" d="M92,-112.5C92,-112.5 244.2207,-112.5 244.2207,-112.5 250.2207,-112.5 256.2207,-118.5 256.2207,-124.5 256.2207,-124.5 256.2207,-192.5 256.2207,-192.5 256.2207,-198.5 250.2207,-204.5 244.2207,-204.5 244.2207,-204.5 92,-204.5 92,-204.5 86,-204.5 80,-198.5 80,-192.5 80,-192.5 80,-124.5 80,-124.5 80,-118.5 86,-112.5 92,-112.5"/>
<text text-anchor="middle" x="168.1104" y="-189.3" font-family="Times,serif" font-size="14.00" fill="#000000">Sessions::UnlocksController</text>
<polyline fill="none" stroke="#000000" points="80,-182.5 256.2207,-182.5 "/>
<polyline fill="none" stroke="#000000" points="80,-158.5 256.2207,-158.5 "/>
<polyline fill="none" stroke="#000000" points="80,-134.5 256.2207,-134.5 "/>
<text text-anchor="start" x="88" y="-119.3" font-family="Times,serif" font-size="14.00" fill="#000000">_layout</text>
</g>
<!-- Users::ConfirmationsController -->
<g id="node18" class="node">
<title>Users::ConfirmationsController</title>
<path fill="none" stroke="#000000" d="M460,-144.5C460,-144.5 629.3242,-144.5 629.3242,-144.5 635.3242,-144.5 641.3242,-150.5 641.3242,-156.5 641.3242,-156.5 641.3242,-224.5 641.3242,-224.5 641.3242,-230.5 635.3242,-236.5 629.3242,-236.5 629.3242,-236.5 460,-236.5 460,-236.5 454,-236.5 448,-230.5 448,-224.5 448,-224.5 448,-156.5 448,-156.5 448,-150.5 454,-144.5 460,-144.5"/>
<text text-anchor="middle" x="544.6621" y="-221.3" font-family="Times,serif" font-size="14.00" fill="#000000">Users::ConfirmationsController</text>
<polyline fill="none" stroke="#000000" points="448,-214.5 641.3242,-214.5 "/>
<polyline fill="none" stroke="#000000" points="448,-190.5 641.3242,-190.5 "/>
<polyline fill="none" stroke="#000000" points="448,-166.5 641.3242,-166.5 "/>
<text text-anchor="start" x="456" y="-151.3" font-family="Times,serif" font-size="14.00" fill="#000000">_layout</text>
</g>
<!-- Users::OmniauthCallbacksController -->
<g id="node19" class="node">
<title>Users::OmniauthCallbacksController</title>
<path fill="none" stroke="#000000" d="M540,-272.5C540,-272.5 740.4072,-272.5 740.4072,-272.5 746.4072,-272.5 752.4072,-278.5 752.4072,-284.5 752.4072,-284.5 752.4072,-352.5 752.4072,-352.5 752.4072,-358.5 746.4072,-364.5 740.4072,-364.5 740.4072,-364.5 540,-364.5 540,-364.5 534,-364.5 528,-358.5 528,-352.5 528,-352.5 528,-284.5 528,-284.5 528,-278.5 534,-272.5 540,-272.5"/>
<text text-anchor="middle" x="640.2036" y="-349.3" font-family="Times,serif" font-size="14.00" fill="#000000">Users::OmniauthCallbacksController</text>
<polyline fill="none" stroke="#000000" points="528,-342.5 752.4072,-342.5 "/>
<polyline fill="none" stroke="#000000" points="528,-318.5 752.4072,-318.5 "/>
<polyline fill="none" stroke="#000000" points="528,-294.5 752.4072,-294.5 "/>
<text text-anchor="start" x="536" y="-279.3" font-family="Times,serif" font-size="14.00" fill="#000000">_layout</text>
</g>
<!-- Users::PasswordsController -->
<g id="node20" class="node">
<title>Users::PasswordsController</title>
<path fill="none" stroke="#000000" d="M764,-784.5C764,-784.5 912.3242,-784.5 912.3242,-784.5 918.3242,-784.5 924.3242,-790.5 924.3242,-796.5 924.3242,-796.5 924.3242,-864.5 924.3242,-864.5 924.3242,-870.5 918.3242,-876.5 912.3242,-876.5 912.3242,-876.5 764,-876.5 764,-876.5 758,-876.5 752,-870.5 752,-864.5 752,-864.5 752,-796.5 752,-796.5 752,-790.5 758,-784.5 764,-784.5"/>
<text text-anchor="middle" x="838.1621" y="-861.3" font-family="Times,serif" font-size="14.00" fill="#000000">Users::PasswordsController</text>
<polyline fill="none" stroke="#000000" points="752,-854.5 924.3242,-854.5 "/>
<polyline fill="none" stroke="#000000" points="752,-830.5 924.3242,-830.5 "/>
<polyline fill="none" stroke="#000000" points="752,-806.5 924.3242,-806.5 "/>
<text text-anchor="start" x="760" y="-791.3" font-family="Times,serif" font-size="14.00" fill="#000000">_layout</text>
</g>
<!-- Users::RegistrationsController -->
<g id="node21" class="node">
<title>Users::RegistrationsController</title>
<path fill="none" stroke="#000000" d="M764,-656.5C764,-656.5 927.0898,-656.5 927.0898,-656.5 933.0898,-656.5 939.0898,-662.5 939.0898,-668.5 939.0898,-668.5 939.0898,-736.5 939.0898,-736.5 939.0898,-742.5 933.0898,-748.5 927.0898,-748.5 927.0898,-748.5 764,-748.5 764,-748.5 758,-748.5 752,-742.5 752,-736.5 752,-736.5 752,-668.5 752,-668.5 752,-662.5 758,-656.5 764,-656.5"/>
<text text-anchor="middle" x="845.5449" y="-733.3" font-family="Times,serif" font-size="14.00" fill="#000000">Users::RegistrationsController</text>
<polyline fill="none" stroke="#000000" points="752,-726.5 939.0898,-726.5 "/>
<polyline fill="none" stroke="#000000" points="752,-702.5 939.0898,-702.5 "/>
<polyline fill="none" stroke="#000000" points="752,-678.5 939.0898,-678.5 "/>
<text text-anchor="start" x="760" y="-663.3" font-family="Times,serif" font-size="14.00" fill="#000000">_layout</text>
</g>
<!-- Users::SessionsController -->
<g id="node22" class="node">
<title>Users::SessionsController</title>
<path fill="none" stroke="#000000" d="M28,-256.5C28,-256.5 165.4414,-256.5 165.4414,-256.5 171.4414,-256.5 177.4414,-262.5 177.4414,-268.5 177.4414,-268.5 177.4414,-336.5 177.4414,-336.5 177.4414,-342.5 171.4414,-348.5 165.4414,-348.5 165.4414,-348.5 28,-348.5 28,-348.5 22,-348.5 16,-342.5 16,-336.5 16,-336.5 16,-268.5 16,-268.5 16,-262.5 22,-256.5 28,-256.5"/>
<text text-anchor="middle" x="96.7207" y="-333.3" font-family="Times,serif" font-size="14.00" fill="#000000">Users::SessionsController</text>
<polyline fill="none" stroke="#000000" points="16,-326.5 177.4414,-326.5 "/>
<polyline fill="none" stroke="#000000" points="16,-302.5 177.4414,-302.5 "/>
<polyline fill="none" stroke="#000000" points="16,-278.5 177.4414,-278.5 "/>
<text text-anchor="start" x="24" y="-263.3" font-family="Times,serif" font-size="14.00" fill="#000000">_layout</text>
</g>
<!-- Users::UnlocksController -->
<g id="node23" class="node">
<title>Users::UnlocksController</title>
<path fill="none" stroke="#000000" d="M12,-800.5C12,-800.5 147.8691,-800.5 147.8691,-800.5 153.8691,-800.5 159.8691,-806.5 159.8691,-812.5 159.8691,-812.5 159.8691,-880.5 159.8691,-880.5 159.8691,-886.5 153.8691,-892.5 147.8691,-892.5 147.8691,-892.5 12,-892.5 12,-892.5 6,-892.5 0,-886.5 0,-880.5 0,-880.5 0,-812.5 0,-812.5 0,-806.5 6,-800.5 12,-800.5"/>
<text text-anchor="middle" x="79.9346" y="-877.3" font-family="Times,serif" font-size="14.00" fill="#000000">Users::UnlocksController</text>
<polyline fill="none" stroke="#000000" points="0,-870.5 159.8691,-870.5 "/>
<polyline fill="none" stroke="#000000" points="0,-846.5 159.8691,-846.5 "/>
<polyline fill="none" stroke="#000000" points="0,-822.5 159.8691,-822.5 "/>
<text text-anchor="start" x="8" y="-807.3" font-family="Times,serif" font-size="14.00" fill="#000000">_layout</text>
</g>
<!-- WelcomeController -->
<g id="node24" class="node">
<title>WelcomeController</title>
<path fill="none" stroke="#000000" d="M572,-.5C572,-.5 674.0654,-.5 674.0654,-.5 680.0654,-.5 686.0654,-6.5 686.0654,-12.5 686.0654,-12.5 686.0654,-78.5 686.0654,-78.5 686.0654,-84.5 680.0654,-90.5 674.0654,-90.5 674.0654,-90.5 572,-90.5 572,-90.5 566,-90.5 560,-84.5 560,-78.5 560,-78.5 560,-12.5 560,-12.5 560,-6.5 566,-.5 572,-.5"/>
<text text-anchor="middle" x="623.0327" y="-75.3" font-family="Times,serif" font-size="14.00" fill="#000000">WelcomeController</text>
<polyline fill="none" stroke="#000000" points="560,-68.5 686.0654,-68.5 "/>
<text text-anchor="start" x="568" y="-53.3" font-family="Times,serif" font-size="14.00" fill="#000000">index</text>
<polyline fill="none" stroke="#000000" points="560,-46.5 686.0654,-46.5 "/>
<polyline fill="none" stroke="#000000" points="560,-22.5 686.0654,-22.5 "/>
<text text-anchor="start" x="568" y="-7.3" font-family="Times,serif" font-size="14.00" fill="#000000">_layout</text>
</g>
</g>
</svg>
