<?xml version="1.0" encoding="UTF-8" standalone="no"?>
<!DOCTYPE svg PUBLIC "-//W3C//DTD SVG 1.1//EN"
 "http://www.w3.org/Graphics/SVG/1.1/DTD/svg11.dtd">
<!-- Generated by graphviz version 2.40.1 (20161225.0304)
 -->
<!-- Title: models_diagram Pages: 1 -->
<svg width="368pt" height="297pt"
 viewBox="0.00 0.00 367.65 297.00" xmlns="http://www.w3.org/2000/svg" xmlns:xlink="http://www.w3.org/1999/xlink">
<g id="graph0" class="graph" transform="scale(1 1) rotate(0) translate(4 293)">
<title>models_diagram</title>
<polygon fill="transparent" stroke="transparent" points="-4,4 -4,-293 363.6481,-293 363.6481,4 -4,4"/>
<!-- _diagram_info -->
<g id="node1" class="node">
<title>_diagram_info</title>
<text text-anchor="start" x="8" y="-274.6" font-family="Times,serif" font-size="13.00" fill="#000000">Models diagram</text>
<text text-anchor="start" x="8" y="-261.6" font-family="Times,serif" font-size="13.00" fill="#000000">Date: Jul 30 2017 &#45; 08:20</text>
<text text-anchor="start" x="8" y="-248.6" font-family="Times,serif" font-size="13.00" fill="#000000">Migration version: 20170730091328</text>
<text text-anchor="start" x="8" y="-235.6" font-family="Times,serif" font-size="13.00" fill="#000000">Generated by RailRoady 1.5.3</text>
<text text-anchor="start" x="8" y="-222.6" font-family="Times,serif" font-size="13.00" fill="#000000">http://railroady.prestonlee.com</text>
</g>
<!-- Comment -->
<g id="node2" class="node">
<title>Comment</title>
<ellipse fill="none" stroke="#000000" cx="203.6877" cy="-90" rx="44.9768" ry="18"/>
<text text-anchor="middle" x="203.6877" y="-85.8" font-family="Times,serif" font-size="14.00" fill="#000000">Comment</text>
</g>
<!-- Pet -->
<g id="node3" class="node">
<title>Pet</title>
<ellipse fill="none" stroke="#000000" cx="324.6877" cy="-252.5" rx="27" ry="18"/>
<text text-anchor="middle" x="324.6877" y="-248.3" font-family="Times,serif" font-size="14.00" fill="#000000">Pet</text>
</g>
<!-- Post -->
<g id="node4" class="node">
<title>Post</title>
<ellipse fill="none" stroke="#000000" cx="284.6877" cy="-162" rx="27" ry="18"/>
<text text-anchor="middle" x="284.6877" y="-157.8" font-family="Times,serif" font-size="14.00" fill="#000000">Post</text>
</g>
<!-- Post&#45;&gt;Comment -->
<g id="edge3" class="edge">
<title>Post&#45;&gt;Comment</title>
<path fill="none" stroke="#ba846f" d="M262.0402,-141.8688C252.0598,-132.9974 240.2711,-122.5185 229.9115,-113.31"/>
<ellipse fill="none" stroke="#ba846f" cx="265.3065" cy="-144.7723" rx="4" ry="4"/>
<polygon fill="#ba846f" stroke="#ba846f" points="229.7957,-113.2071 225.3113,-103.2001 226.0587,-109.8853 222.3216,-106.5634 222.3216,-106.5634 222.3216,-106.5634 226.0587,-109.8853 219.332,-109.9268 229.7957,-113.2071 229.7957,-113.2071"/>
</g>
<!-- Tag -->
<g id="node5" class="node">
<title>Tag</title>
<ellipse fill="none" stroke="#000000" cx="293.6877" cy="-90" rx="27" ry="18"/>
<text text-anchor="middle" x="293.6877" y="-85.8" font-family="Times,serif" font-size="14.00" fill="#000000">Tag</text>
</g>
<!-- Post&#45;&gt;Tag -->
<g id="edge2" class="edge">
<title>Post&#45;&gt;Tag</title>
<path fill="none" stroke="#f818c2" d="M288.2059,-133.8545C288.8401,-128.781 289.5017,-123.4887 290.1368,-118.4078"/>
<polygon fill="#f818c2" stroke="#f818c2" points="288.1993,-133.9086 282.4936,-143.2732 287.579,-138.87 286.9588,-143.8314 286.9588,-143.8314 286.9588,-143.8314 287.579,-138.87 291.4241,-144.3896 288.1993,-133.9086 288.1993,-133.9086"/>
<polygon fill="#f818c2" stroke="#f818c2" points="290.1457,-118.336 295.8513,-108.9715 290.7659,-113.3747 291.3861,-108.4133 291.3861,-108.4133 291.3861,-108.4133 290.7659,-113.3747 286.9208,-107.8551 290.1457,-118.336 290.1457,-118.336"/>
</g>
<!-- Tagging -->
<g id="node6" class="node">
<title>Tagging</title>
<ellipse fill="none" stroke="#000000" cx="320.6877" cy="-18" rx="38.9207" ry="18"/>
<text text-anchor="middle" x="320.6877" y="-13.8" font-family="Times,serif" font-size="14.00" fill="#000000">Tagging</text>
</g>
<!-- Post&#45;&gt;Tagging -->
<g id="edge1" class="edge">
<title>Post&#45;&gt;Tagging</title>
<path fill="none" stroke="#6860cc" d="M307.0719,-142.0529C315.9117,-132.7006 325.053,-120.8014 329.6877,-108 336.9608,-87.9115 333.961,-63.7548 329.5534,-45.5282"/>
<ellipse fill="none" stroke="#6860cc" cx="304.1737" cy="-144.9748" rx="4" ry="4"/>
<polygon fill="#6860cc" stroke="#6860cc" points="329.5388,-45.4735 331.2851,-34.6475 328.2393,-40.6453 326.9397,-35.8171 326.9397,-35.8171 326.9397,-35.8171 328.2393,-40.6453 322.5944,-36.9867 329.5388,-45.4735 329.5388,-45.4735"/>
</g>
<!-- Tag&#45;&gt;Tagging -->
<g id="edge4" class="edge">
<title>Tag&#45;&gt;Tagging</title>
<path fill="none" stroke="#62d94e" d="M303.2314,-64.5502C305.5662,-58.3241 308.0742,-51.6362 310.4404,-45.3263"/>
<ellipse fill="none" stroke="#62d94e" cx="301.7664" cy="-68.4569" rx="4" ry="4"/>
<polygon fill="#62d94e" stroke="#62d94e" points="310.4855,-45.2058 318.2103,-37.4226 312.2411,-40.5242 313.9968,-35.8425 313.9968,-35.8425 313.9968,-35.8425 312.2411,-40.5242 309.7833,-34.2625 310.4855,-45.2058 310.4855,-45.2058"/>
</g>
<!-- User -->
<g id="node7" class="node">
<title>User</title>
<ellipse fill="none" stroke="#000000" cx="252.6877" cy="-252.5" rx="27" ry="18"/>
<text text-anchor="middle" x="252.6877" y="-248.3" font-family="Times,serif" font-size="14.00" fill="#000000">User</text>
</g>
<!-- User&#45;&gt;Comment -->
<g id="edge6" class="edge">
<title>User&#45;&gt;Comment</title>
<path fill="none" stroke="#d59302" d="M244.9803,-226.9396C236.0265,-197.246 221.3056,-148.4266 212.0725,-117.8065"/>
<ellipse fill="none" stroke="#d59302" cx="246.1958" cy="-230.9706" rx="4" ry="4"/>
<polygon fill="#d59302" stroke="#d59302" points="212.0549,-117.7481 213.4763,-106.8748 210.6114,-112.961 209.1679,-108.1739 209.1679,-108.1739 209.1679,-108.1739 210.6114,-112.961 204.8595,-109.4731 212.0549,-117.7481 212.0549,-117.7481"/>
</g>
<!-- User&#45;&gt;Post -->
<g id="edge5" class="edge">
<title>User&#45;&gt;Post</title>
<path fill="none" stroke="#253e05" d="M261.6776,-227.0754C265.8668,-215.2279 270.8551,-201.1204 275.1146,-189.0741"/>
<ellipse fill="none" stroke="#253e05" cx="260.3434" cy="-230.8489" rx="4" ry="4"/>
<polygon fill="#253e05" stroke="#253e05" points="275.1539,-188.9628 282.7302,-181.035 276.8207,-184.2488 278.4876,-179.5348 278.4876,-179.5348 278.4876,-179.5348 276.8207,-184.2488 274.245,-178.0346 275.1539,-188.9628 275.1539,-188.9628"/>
</g>
</g>
</svg>
