<?xml version="1.0" encoding="UTF-8" standalone="no"?>
<!DOCTYPE svg PUBLIC "-//W3C//DTD SVG 1.1//EN"
 "http://www.w3.org/Graphics/SVG/1.1/DTD/svg11.dtd">
<!-- Generated by graphviz version 2.40.1 (20161225.0304)
 -->
<!-- Title: models_diagram Pages: 1 -->
<svg width="589pt" height="954pt"
 viewBox="0.00 0.00 589.19 954.00" xmlns="http://www.w3.org/2000/svg" xmlns:xlink="http://www.w3.org/1999/xlink">
<g id="graph0" class="graph" transform="scale(1 1) rotate(0) translate(4 950)">
<title>models_diagram</title>
<polygon fill="transparent" stroke="transparent" points="-4,4 -4,-950 585.1931,-950 585.1931,4 -4,4"/>
<!-- _diagram_info -->
<g id="node1" class="node">
<title>_diagram_info</title>
<text text-anchor="start" x="8" y="-756.6" font-family="Times,serif" font-size="13.00" fill="#000000">Models diagram</text>
<text text-anchor="start" x="8" y="-743.6" font-family="Times,serif" font-size="13.00" fill="#000000">Date: Jul 30 2017 &#45; 08:20</text>
<text text-anchor="start" x="8" y="-730.6" font-family="Times,serif" font-size="13.00" fill="#000000">Migration version: 20170730091328</text>
<text text-anchor="start" x="8" y="-717.6" font-family="Times,serif" font-size="13.00" fill="#000000">Generated by RailRoady 1.5.3</text>
<text text-anchor="start" x="8" y="-704.6" font-family="Times,serif" font-size="13.00" fill="#000000">http://railroady.prestonlee.com</text>
</g>
<!-- Comment -->
<g id="node2" class="node">
<title>Comment</title>
<path fill="none" stroke="#000000" d="M193.1824,-137.5C193.1824,-137.5 302.1931,-137.5 302.1931,-137.5 308.1931,-137.5 314.1931,-143.5 314.1931,-149.5 314.1931,-149.5 314.1931,-239.5 314.1931,-239.5 314.1931,-245.5 308.1931,-251.5 302.1931,-251.5 302.1931,-251.5 193.1824,-251.5 193.1824,-251.5 187.1824,-251.5 181.1824,-245.5 181.1824,-239.5 181.1824,-239.5 181.1824,-149.5 181.1824,-149.5 181.1824,-143.5 187.1824,-137.5 193.1824,-137.5"/>
<text text-anchor="middle" x="247.6877" y="-236.3" font-family="Times,serif" font-size="14.00" fill="#000000">Comment</text>
<polyline fill="none" stroke="#000000" points="181.1824,-229.5 314.1931,-229.5 "/>
<text text-anchor="start" x="189.1824" y="-214.3" font-family="Times,serif" font-size="14.00" fill="#000000">id :INTEGER</text>
<text text-anchor="start" x="189.1824" y="-200.3" font-family="Times,serif" font-size="14.00" fill="#000000">comment :text</text>
<text text-anchor="start" x="189.1824" y="-186.3" font-family="Times,serif" font-size="14.00" fill="#000000">post_id :integer</text>
<text text-anchor="start" x="189.1824" y="-172.3" font-family="Times,serif" font-size="14.00" fill="#000000">user_id :integer</text>
<text text-anchor="start" x="189.1824" y="-158.3" font-family="Times,serif" font-size="14.00" fill="#000000">created_at :datetime</text>
<text text-anchor="start" x="189.1824" y="-144.3" font-family="Times,serif" font-size="14.00" fill="#000000">updated_at :datetime</text>
</g>
<!-- Pet -->
<g id="node3" class="node">
<title>Pet</title>
<path fill="none" stroke="#000000" d="M460.1824,-677.5C460.1824,-677.5 569.1931,-677.5 569.1931,-677.5 575.1931,-677.5 581.1931,-683.5 581.1931,-689.5 581.1931,-689.5 581.1931,-779.5 581.1931,-779.5 581.1931,-785.5 575.1931,-791.5 569.1931,-791.5 569.1931,-791.5 460.1824,-791.5 460.1824,-791.5 454.1824,-791.5 448.1824,-785.5 448.1824,-779.5 448.1824,-779.5 448.1824,-689.5 448.1824,-689.5 448.1824,-683.5 454.1824,-677.5 460.1824,-677.5"/>
<text text-anchor="middle" x="514.6877" y="-776.3" font-family="Times,serif" font-size="14.00" fill="#000000">Pet</text>
<polyline fill="none" stroke="#000000" points="448.1824,-769.5 581.1931,-769.5 "/>
<text text-anchor="start" x="456.1824" y="-754.3" font-family="Times,serif" font-size="14.00" fill="#000000">id :INTEGER</text>
<text text-anchor="start" x="456.1824" y="-740.3" font-family="Times,serif" font-size="14.00" fill="#000000">name :varchar</text>
<text text-anchor="start" x="456.1824" y="-726.3" font-family="Times,serif" font-size="14.00" fill="#000000">description :text</text>
<text text-anchor="start" x="456.1824" y="-712.3" font-family="Times,serif" font-size="14.00" fill="#000000">image :varchar</text>
<text text-anchor="start" x="456.1824" y="-698.3" font-family="Times,serif" font-size="14.00" fill="#000000">created_at :datetime</text>
<text text-anchor="start" x="456.1824" y="-684.3" font-family="Times,serif" font-size="14.00" fill="#000000">updated_at :datetime</text>
</g>
<!-- Post -->
<g id="node4" class="node">
<title>Post</title>
<path fill="none" stroke="#000000" d="M312.2512,-288.5C312.2512,-288.5 467.1243,-288.5 467.1243,-288.5 473.1243,-288.5 479.1243,-294.5 479.1243,-300.5 479.1243,-300.5 479.1243,-474.5 479.1243,-474.5 479.1243,-480.5 473.1243,-486.5 467.1243,-486.5 467.1243,-486.5 312.2512,-486.5 312.2512,-486.5 306.2512,-486.5 300.2512,-480.5 300.2512,-474.5 300.2512,-474.5 300.2512,-300.5 300.2512,-300.5 300.2512,-294.5 306.2512,-288.5 312.2512,-288.5"/>
<text text-anchor="middle" x="389.6877" y="-471.3" font-family="Times,serif" font-size="14.00" fill="#000000">Post</text>
<polyline fill="none" stroke="#000000" points="300.2512,-464.5 479.1243,-464.5 "/>
<text text-anchor="start" x="308.2512" y="-449.3" font-family="Times,serif" font-size="14.00" fill="#000000">description :text</text>
<text text-anchor="start" x="308.2512" y="-435.3" font-family="Times,serif" font-size="14.00" fill="#000000">title :varchar</text>
<text text-anchor="start" x="308.2512" y="-421.3" font-family="Times,serif" font-size="14.00" fill="#000000">content :text</text>
<text text-anchor="start" x="308.2512" y="-407.3" font-family="Times,serif" font-size="14.00" fill="#000000">created_at :datetime</text>
<text text-anchor="start" x="308.2512" y="-393.3" font-family="Times,serif" font-size="14.00" fill="#000000">updated_at :datetime</text>
<text text-anchor="start" x="308.2512" y="-379.3" font-family="Times,serif" font-size="14.00" fill="#000000">user_id :integer</text>
<text text-anchor="start" x="308.2512" y="-365.3" font-family="Times,serif" font-size="14.00" fill="#000000">public :boolean</text>
<text text-anchor="start" x="308.2512" y="-351.3" font-family="Times,serif" font-size="14.00" fill="#000000">image_file_name :varchar</text>
<text text-anchor="start" x="308.2512" y="-337.3" font-family="Times,serif" font-size="14.00" fill="#000000">image_content_type :varchar</text>
<text text-anchor="start" x="308.2512" y="-323.3" font-family="Times,serif" font-size="14.00" fill="#000000">image_file_size :integer</text>
<text text-anchor="start" x="308.2512" y="-309.3" font-family="Times,serif" font-size="14.00" fill="#000000">image_updated_at :datetime</text>
<text text-anchor="start" x="308.2512" y="-295.3" font-family="Times,serif" font-size="14.00" fill="#000000">id :INTEGER</text>
</g>
<!-- Post&#45;&gt;Comment -->
<g id="edge3" class="edge">
<title>Post&#45;&gt;Comment</title>
<path fill="none" stroke="#da7084" d="M312.0476,-281.975C306.5551,-274.5098 301.116,-267.1173 295.8634,-259.9782"/>
<ellipse fill="none" stroke="#da7084" cx="314.4453" cy="-285.2339" rx="4" ry="4"/>
<polygon fill="#da7084" stroke="#da7084" points="295.7173,-259.7796 293.4156,-249.058 292.7542,-255.7522 289.791,-251.7248 289.791,-251.7248 289.791,-251.7248 292.7542,-255.7522 286.1664,-254.3917 295.7173,-259.7796 295.7173,-259.7796"/>
</g>
<!-- Tag -->
<g id="node5" class="node">
<title>Tag</title>
<path fill="none" stroke="#000000" d="M344.1824,-151.5C344.1824,-151.5 453.1931,-151.5 453.1931,-151.5 459.1931,-151.5 465.1931,-157.5 465.1931,-163.5 465.1931,-163.5 465.1931,-225.5 465.1931,-225.5 465.1931,-231.5 459.1931,-237.5 453.1931,-237.5 453.1931,-237.5 344.1824,-237.5 344.1824,-237.5 338.1824,-237.5 332.1824,-231.5 332.1824,-225.5 332.1824,-225.5 332.1824,-163.5 332.1824,-163.5 332.1824,-157.5 338.1824,-151.5 344.1824,-151.5"/>
<text text-anchor="middle" x="398.6877" y="-222.3" font-family="Times,serif" font-size="14.00" fill="#000000">Tag</text>
<polyline fill="none" stroke="#000000" points="332.1824,-215.5 465.1931,-215.5 "/>
<text text-anchor="start" x="340.1824" y="-200.3" font-family="Times,serif" font-size="14.00" fill="#000000">id :INTEGER</text>
<text text-anchor="start" x="340.1824" y="-186.3" font-family="Times,serif" font-size="14.00" fill="#000000">name :varchar</text>
<text text-anchor="start" x="340.1824" y="-172.3" font-family="Times,serif" font-size="14.00" fill="#000000">created_at :datetime</text>
<text text-anchor="start" x="340.1824" y="-158.3" font-family="Times,serif" font-size="14.00" fill="#000000">updated_at :datetime</text>
</g>
<!-- Post&#45;&gt;Tag -->
<g id="edge2" class="edge">
<title>Post&#45;&gt;Tag</title>
<path fill="none" stroke="#5eb362" d="M394.7905,-278.0747C395.2764,-267.6545 395.7528,-257.4391 396.1964,-247.9263"/>
<polygon fill="#5eb362" stroke="#5eb362" points="394.7723,-278.4667 389.8113,-288.2462 394.5393,-283.4613 394.3064,-288.4558 394.3064,-288.4558 394.3064,-288.4558 394.5393,-283.4613 398.8015,-288.6655 394.7723,-278.4667 394.7723,-278.4667"/>
<polygon fill="#5eb362" stroke="#5eb362" points="396.1979,-247.8923 401.1589,-238.1128 396.4308,-242.8977 396.6638,-237.9032 396.6638,-237.9032 396.6638,-237.9032 396.4308,-242.8977 392.1686,-237.6935 396.1979,-247.8923 396.1979,-247.8923"/>
</g>
<!-- Tagging -->
<g id="node6" class="node">
<title>Tagging</title>
<path fill="none" stroke="#000000" d="M391.1824,-.5C391.1824,-.5 500.1931,-.5 500.1931,-.5 506.1931,-.5 512.1931,-6.5 512.1931,-12.5 512.1931,-12.5 512.1931,-88.5 512.1931,-88.5 512.1931,-94.5 506.1931,-100.5 500.1931,-100.5 500.1931,-100.5 391.1824,-100.5 391.1824,-100.5 385.1824,-100.5 379.1824,-94.5 379.1824,-88.5 379.1824,-88.5 379.1824,-12.5 379.1824,-12.5 379.1824,-6.5 385.1824,-.5 391.1824,-.5"/>
<text text-anchor="middle" x="445.6877" y="-85.3" font-family="Times,serif" font-size="14.00" fill="#000000">Tagging</text>
<polyline fill="none" stroke="#000000" points="379.1824,-78.5 512.1931,-78.5 "/>
<text text-anchor="start" x="387.1824" y="-63.3" font-family="Times,serif" font-size="14.00" fill="#000000">id :INTEGER</text>
<text text-anchor="start" x="387.1824" y="-49.3" font-family="Times,serif" font-size="14.00" fill="#000000">post_id :integer</text>
<text text-anchor="start" x="387.1824" y="-35.3" font-family="Times,serif" font-size="14.00" fill="#000000">tag_id :integer</text>
<text text-anchor="start" x="387.1824" y="-21.3" font-family="Times,serif" font-size="14.00" fill="#000000">created_at :datetime</text>
<text text-anchor="start" x="387.1824" y="-7.3" font-family="Times,serif" font-size="14.00" fill="#000000">updated_at :datetime</text>
</g>
<!-- Post&#45;&gt;Tagging -->
<g id="edge1" class="edge">
<title>Post&#45;&gt;Tagging</title>
<path fill="none" stroke="#dab9d9" d="M463.7603,-281.0838C468.1222,-271.5418 471.8734,-261.7826 474.6877,-252 488.8189,-202.8812 482.9186,-187.444 474.6877,-137 473.2608,-128.2546 471.0725,-119.2004 468.5238,-110.3902"/>
<ellipse fill="none" stroke="#dab9d9" cx="462.0292" cy="-284.7228" rx="4" ry="4"/>
<polygon fill="#dab9d9" stroke="#dab9d9" points="468.4462,-110.1369 469.8168,-99.257 466.9804,-105.3566 465.5145,-100.5762 465.5145,-100.5762 465.5145,-100.5762 466.9804,-105.3566 461.2123,-101.8955 468.4462,-110.1369 468.4462,-110.1369"/>
</g>
<!-- Tag&#45;&gt;Tagging -->
<g id="edge4" class="edge">
<title>Tag&#45;&gt;Tagging</title>
<path fill="none" stroke="#d6eeee" d="M415.2848,-143.6495C418.8206,-132.8162 422.5853,-121.2819 426.2176,-110.1533"/>
<ellipse fill="none" stroke="#d6eeee" cx="414.0304" cy="-147.4927" rx="4" ry="4"/>
<polygon fill="#d6eeee" stroke="#d6eeee" points="426.2635,-110.0123 433.6443,-101.9021 427.815,-105.2591 429.3664,-100.5058 429.3664,-100.5058 429.3664,-100.5058 427.815,-105.2591 425.0885,-99.1095 426.2635,-110.0123 426.2635,-110.0123"/>
</g>
<!-- User -->
<g id="node7" class="node">
<title>User</title>
<path fill="none" stroke="#000000" d="M237.4099,-523.5C237.4099,-523.5 417.9656,-523.5 417.9656,-523.5 423.9656,-523.5 429.9656,-529.5 429.9656,-535.5 429.9656,-535.5 429.9656,-933.5 429.9656,-933.5 429.9656,-939.5 423.9656,-945.5 417.9656,-945.5 417.9656,-945.5 237.4099,-945.5 237.4099,-945.5 231.4099,-945.5 225.4099,-939.5 225.4099,-933.5 225.4099,-933.5 225.4099,-535.5 225.4099,-535.5 225.4099,-529.5 231.4099,-523.5 237.4099,-523.5"/>
<text text-anchor="middle" x="327.6877" y="-930.3" font-family="Times,serif" font-size="14.00" fill="#000000">User</text>
<polyline fill="none" stroke="#000000" points="225.4099,-923.5 429.9656,-923.5 "/>
<text text-anchor="start" x="233.4099" y="-908.3" font-family="Times,serif" font-size="14.00" fill="#000000">bio :text</text>
<text text-anchor="start" x="233.4099" y="-894.3" font-family="Times,serif" font-size="14.00" fill="#000000">first_name :varchar</text>
<text text-anchor="start" x="233.4099" y="-880.3" font-family="Times,serif" font-size="14.00" fill="#000000">last_name :varchar</text>
<text text-anchor="start" x="233.4099" y="-866.3" font-family="Times,serif" font-size="14.00" fill="#000000">username :varchar</text>
<text text-anchor="start" x="233.4099" y="-852.3" font-family="Times,serif" font-size="14.00" fill="#000000">password :varchar</text>
<text text-anchor="start" x="233.4099" y="-838.3" font-family="Times,serif" font-size="14.00" fill="#000000">email :varchar</text>
<text text-anchor="start" x="233.4099" y="-824.3" font-family="Times,serif" font-size="14.00" fill="#000000">created_at :datetime</text>
<text text-anchor="start" x="233.4099" y="-810.3" font-family="Times,serif" font-size="14.00" fill="#000000">updated_at :datetime</text>
<text text-anchor="start" x="233.4099" y="-796.3" font-family="Times,serif" font-size="14.00" fill="#000000">encrypted_password :varchar</text>
<text text-anchor="start" x="233.4099" y="-782.3" font-family="Times,serif" font-size="14.00" fill="#000000">reset_password_token :varchar</text>
<text text-anchor="start" x="233.4099" y="-768.3" font-family="Times,serif" font-size="14.00" fill="#000000">reset_password_sent_at :datetime</text>
<text text-anchor="start" x="233.4099" y="-754.3" font-family="Times,serif" font-size="14.00" fill="#000000">remember_created_at :datetime</text>
<text text-anchor="start" x="233.4099" y="-740.3" font-family="Times,serif" font-size="14.00" fill="#000000">sign_in_count :integer</text>
<text text-anchor="start" x="233.4099" y="-726.3" font-family="Times,serif" font-size="14.00" fill="#000000">current_sign_in_at :datetime</text>
<text text-anchor="start" x="233.4099" y="-712.3" font-family="Times,serif" font-size="14.00" fill="#000000">last_sign_in_at :datetime</text>
<text text-anchor="start" x="233.4099" y="-698.3" font-family="Times,serif" font-size="14.00" fill="#000000">current_sign_in_ip :varchar</text>
<text text-anchor="start" x="233.4099" y="-684.3" font-family="Times,serif" font-size="14.00" fill="#000000">last_sign_in_ip :varchar</text>
<text text-anchor="start" x="233.4099" y="-670.3" font-family="Times,serif" font-size="14.00" fill="#000000">admin :boolean</text>
<text text-anchor="start" x="233.4099" y="-656.3" font-family="Times,serif" font-size="14.00" fill="#000000">approved :boolean</text>
<text text-anchor="start" x="233.4099" y="-642.3" font-family="Times,serif" font-size="14.00" fill="#000000">image_file_name :varchar</text>
<text text-anchor="start" x="233.4099" y="-628.3" font-family="Times,serif" font-size="14.00" fill="#000000">image_content_type :varchar</text>
<text text-anchor="start" x="233.4099" y="-614.3" font-family="Times,serif" font-size="14.00" fill="#000000">image_file_size :integer</text>
<text text-anchor="start" x="233.4099" y="-600.3" font-family="Times,serif" font-size="14.00" fill="#000000">image_updated_at :datetime</text>
<text text-anchor="start" x="233.4099" y="-586.3" font-family="Times,serif" font-size="14.00" fill="#000000">avatar_file_name :varchar</text>
<text text-anchor="start" x="233.4099" y="-572.3" font-family="Times,serif" font-size="14.00" fill="#000000">avatar_content_type :varchar</text>
<text text-anchor="start" x="233.4099" y="-558.3" font-family="Times,serif" font-size="14.00" fill="#000000">avatar_file_size :integer</text>
<text text-anchor="start" x="233.4099" y="-544.3" font-family="Times,serif" font-size="14.00" fill="#000000">avatar_updated_at :datetime</text>
<text text-anchor="start" x="233.4099" y="-530.3" font-family="Times,serif" font-size="14.00" fill="#000000">id :INTEGER</text>
</g>
<!-- User&#45;&gt;Comment -->
<g id="edge6" class="edge">
<title>User&#45;&gt;Comment</title>
<path fill="none" stroke="#995c3c" d="M295.2188,-515.3345C281.7302,-424.2865 267.0562,-325.2372 257.6349,-261.6432"/>
<ellipse fill="none" stroke="#995c3c" cx="295.8277" cy="-519.445" rx="4" ry="4"/>
<polygon fill="#995c3c" stroke="#995c3c" points="257.6345,-261.6399 260.6203,-251.0883 256.9017,-256.6938 256.1689,-251.7478 256.1689,-251.7478 256.1689,-251.7478 256.9017,-256.6938 251.7175,-252.4073 257.6345,-261.6399 257.6345,-261.6399"/>
</g>
<!-- User&#45;&gt;Post -->
<g id="edge5" class="edge">
<title>User&#45;&gt;Post</title>
<path fill="none" stroke="#ee57f9" d="M366.9032,-515.02C368.0049,-508.8538 369.0917,-502.7712 370.1575,-496.8064"/>
<ellipse fill="none" stroke="#ee57f9" cx="366.1541" cy="-519.2125" rx="4" ry="4"/>
<polygon fill="#ee57f9" stroke="#ee57f9" points="370.1711,-496.7296 376.36,-487.677 371.0506,-491.8075 371.9301,-486.8855 371.9301,-486.8855 371.9301,-486.8855 371.0506,-491.8075 367.5003,-486.0939 370.1711,-496.7296 370.1711,-496.7296"/>
</g>
</g>
</svg>
